<?xml version="1.0" encoding="UTF-8" standalone="no"?>
<!DOCTYPE svg PUBLIC "-//W3C//DTD SVG 1.1//EN" "http://www.w3.org/Graphics/SVG/1.1/DTD/svg11.dtd">
<svg width="100%" height="100%" viewBox="0 0 204 226" version="1.1" xmlns="http://www.w3.org/2000/svg" xmlnsXlink="http://www.w3.org/1999/xlink" xmlSpace="preserve" style="fill-rule:evenodd;clip-rule:evenodd;stroke-linejoin:round;stroke-miterlimit:2;">
    <g>
        <g>
            <path d="M50.5,5C50.1,5.6 51.3,6.6 53.2,7.2C66.4,11.8 84.3,25.3 92.2,36.7C94.4,39.8 98,41.2 98,38.9C98,38.3 96.3,34.6 94.3,30.6C89.6,21.9 80.5,12.4 73,8.9C64.5,4.8 52,2.6 50.5,5Z" style="fill:white;"/>
            <path d="M146.8,5C138.9,6.3 132.6,8.8 129.2,12C125.6,15.2 125.4,16.7 127.4,23.3L128.8,27.8L124.4,32.5C121.9,35 118.8,39.4 117.5,42.1L115,47L109.7,47C86,47 68.2,60.4 61.6,83.1C60.2,87.9 59.2,89.3 53.7,93.6C30.6,112 24.3,146.2 38.7,176C42.5,183.9 44.6,186.8 51.9,194C56.9,199 63.6,204.4 67.9,207L75.2,211.4L81.3,210.1C99.9,206.3 118.3,192 126.5,175.2C130.7,166.6 134,154.6 134,147.8C134,143.8 134.4,142.6 136.7,140.7C153.5,126.9 158.7,116.5 157.8,98.7L157.5,91.5L164,91C171.4,90.4 175.6,88.5 179.3,84C188.3,73.4 183.9,51.5 169.8,36.4C166.6,33 164,30 164,29.7C164,29.3 167.2,29 171.1,28.8C177.4,28.5 178.4,28.2 179.1,26.3C179.6,25 179.4,23.5 178.6,22.4C177.5,20.9 175.8,20.6 167.9,20.7C162,20.8 156.8,21.4 154,22.4C151.5,23.3 146.5,24 142.9,24C136.8,24 136.2,23.8 135.6,21.7C135.3,20.5 135,19.1 135,18.7C135,17.2 145.5,13 149.5,13C155.7,13 158,12 158.7,9.2C159.1,7.4 158.8,6.3 157.5,5.3C155.4,3.9 153.9,3.8 146.8,5ZM163.7,42.2C168.4,47.2 173,54.8 173,57.8C173,65.8 163.7,67.7 155.3,61.4C148.8,56.5 147.3,45.6 152.5,40.4C156,36.9 159,37.4 163.7,42.2ZM114.6,61.6C117.1,74.2 125.5,82.5 141.5,88.3C148.4,90.7 148.5,90.8 149.3,95.1C150.1,99.3 149.6,107.7 148.3,112.8C147.8,115.1 147.5,115.2 142.1,114.5C116.3,111.3 92.4,91.9 86.5,69.5C85.7,66.4 85.3,63.3 85.6,62.6C86.8,59.4 100.6,55.1 108.4,55.3L113.3,55.5L114.6,61.6ZM63.2,104.3C73.3,123.5 95.7,138 122.3,142.5C125.8,143.1 126,143.3 126,146.8C126,148.8 125.5,152.2 124.9,154.4L123.8,158.3L115.3,157.6C104.6,156.7 91.6,153 82.5,148.2C68.4,140.7 54.6,123.6 52.5,111C51.8,107.1 52,106.5 55.6,102.9C57.7,100.8 59.7,99 60,99C60.3,99 61.7,101.4 63.2,104.3ZM51.5,172.6C63.7,182 77.7,188 92.5,190.2C97.4,190.9 100.9,191.8 100.7,192.5C100.2,194.3 85.3,201.2 80.5,201.8C76.2,202.2 75.3,201.9 68.9,197.5C65.1,194.9 59.3,189.9 56.1,186.4C50.5,180.3 42.9,168 44.8,168C45.3,168 48.3,170.1 51.5,172.6Z" style="fill:white;"/>
            <path d="M14.3,8.7C11,9.4 7.1,13.8 6.4,17.8C5.3,23.6 6.7,36 9.5,44.5C15.3,62.2 26.3,75.7 40.5,82.5C50.4,87.3 51.7,86.8 54.8,77.1C59.1,63.7 69.9,50.8 81.3,45.4C83.3,44.4 85,42.9 85,42.1C85,41.2 83.2,38.4 81,35.8C68.7,21.5 44.6,10.2 23,8.7C19.4,8.4 15.5,8.4 14.3,8.7Z" style="fill:white;"/>
        </g>
    </g>
</svg>
